<?xml version="1.0" standalone="no"?>
<!DOCTYPE svg PUBLIC "-//W3C//DTD SVG 20010904//EN"
 "http://www.w3.org/TR/2001/REC-SVG-20010904/DTD/svg10.dtd">
<svg version="1.0" xmlns="http://www.w3.org/2000/svg"
 width="872.000000pt" height="1280.000000pt" viewBox="0 0 872.000000 1280.000000"
 preserveAspectRatio="xMidYMid meet">
<metadata>
Created by potrace 1.15, written by Peter Selinger 2001-2017
</metadata>
<g transform="translate(0.000000,1280.000000) scale(0.100000,-0.100000)"
fill="#000000" stroke="none">
<path d="M4217 12775 c-110 -34 -257 -49 -391 -40 -218 14 -224 14 -307 -27
-40 -20 -110 -66 -154 -101 -104 -84 -132 -97 -200 -97 -69 0 -95 -13 -95 -46
0 -34 -47 -79 -96 -93 -21 -6 -67 -11 -100 -11 -96 0 -233 -27 -299 -60 -112
-54 -413 -317 -480 -418 -48 -73 -303 -253 -529 -373 -65 -35 -136 -79 -156
-99 -37 -34 -178 -252 -338 -521 -94 -160 -146 -261 -208 -408 -54 -125 -103
-217 -213 -399 -106 -176 -119 -219 -141 -492 -19 -240 -36 -336 -99 -555 -24
-85 -26 -179 -6 -323 12 -83 15 -187 13 -448 l-3 -339 -120 -11 c-130 -11
-171 -26 -204 -72 -52 -74 -91 -239 -91 -389 0 -174 23 -313 114 -703 92 -391
178 -833 246 -1260 84 -526 110 -650 154 -724 54 -93 185 -204 264 -225 44
-12 62 -34 62 -74 0 -13 20 -64 44 -113 24 -50 47 -104 50 -121 4 -18 -1 -70
-14 -128 -21 -105 -26 -175 -10 -175 17 0 67 85 154 265 48 99 123 244 167
322 77 136 129 255 129 298 0 11 -5 27 -10 35 -14 21 -45 -15 -117 -138 -78
-134 -127 -206 -131 -194 -1 5 17 61 41 124 77 196 113 382 105 537 -3 63 -9
96 -22 116 -12 19 -16 37 -12 57 5 23 -2 44 -25 84 l-31 54 22 38 c12 20 29
57 37 82 16 50 29 254 19 294 -4 15 -31 54 -61 86 -30 33 -55 64 -55 69 0 5
14 38 30 74 52 110 52 164 1 216 -36 36 -50 97 -58 242 -6 105 1 179 16 179
15 0 42 -74 86 -239 55 -206 83 -286 145 -416 89 -184 174 -294 268 -347 75
-43 104 -84 157 -227 62 -164 91 -222 164 -317 146 -194 377 -329 718 -421 82
-22 120 -27 233 -27 201 -1 380 43 595 148 130 64 214 125 313 230 163 172
196 262 223 613 l12 162 186 80 c352 149 468 171 517 97 14 -22 15 -35 5 -88
-13 -77 -37 -373 -51 -643 -6 -110 -12 -217 -14 -239 l-4 -39 55 7 c115 13
114 11 158 406 14 129 27 239 28 244 2 5 29 -64 61 -155 95 -269 155 -382 265
-501 91 -99 200 -168 347 -221 203 -73 644 -112 770 -69 180 63 455 310 587
529 129 214 186 471 134 606 -34 87 -46 61 -57 -128 -12 -199 -44 -300 -143
-454 -127 -195 -402 -409 -590 -458 -83 -21 -247 -13 -432 22 -455 85 -617
225 -800 690 -26 66 -49 125 -52 132 -3 7 12 17 37 24 56 17 107 77 172 202
59 112 129 185 195 205 22 7 72 12 110 12 40 0 76 5 86 13 16 11 15 16 -17 67
-45 72 -53 103 -32 135 27 40 43 30 81 -49 37 -79 93 -138 163 -172 51 -26
196 -26 269 -1 56 20 135 83 158 126 7 15 21 56 30 91 22 85 32 97 59 71 12
-10 39 -28 62 -39 49 -25 63 -54 75 -157 4 -44 11 -96 15 -117 8 -45 -10 -59
-122 -90 -73 -21 -99 -23 -368 -23 -260 0 -290 -2 -299 -17 -9 -13 -7 -22 7
-37 23 -25 56 -36 176 -57 93 -17 114 -17 535 -11 62 1 87 -2 111 -17 21 -12
40 -17 57 -12 42 10 84 53 91 92 16 81 126 159 217 152 40 -2 54 1 62 13 36
57 -185 370 -347 492 -42 32 -76 62 -76 67 0 66 318 -233 435 -408 75 -113
142 -179 220 -217 101 -49 134 -43 154 32 14 48 5 80 -34 126 -35 40 -72 140
-100 268 -20 94 -9 129 53 173 48 33 96 37 268 22 86 -7 107 -6 134 8 56 28
87 21 137 -29 39 -38 44 -49 38 -72 -18 -75 -290 -598 -361 -694 -40 -55 -77
-75 -159 -84 -67 -8 -115 -29 -115 -49 0 -21 45 -35 160 -50 181 -24 196 -38
193 -185 -1 -110 -40 -344 -78 -476 -46 -157 -80 -208 -329 -485 -72 -80 -134
-144 -138 -143 -4 2 -36 24 -70 49 -75 55 -126 80 -140 66 -18 -18 3 -54 71
-120 67 -66 111 -119 111 -134 0 -21 -37 -1 -135 72 -65 49 -116 80 -131 80
-13 0 -24 -3 -24 -7 0 -3 18 -41 40 -83 41 -81 80 -204 80 -254 0 -28 -1 -29
-44 -23 -32 5 -47 2 -56 -8 -7 -8 -16 -69 -21 -137 -11 -161 -16 -194 -38
-243 -29 -66 -59 -75 -248 -75 -87 0 -164 -4 -172 -9 -9 -6 -11 -18 -7 -35 8
-31 -2 -76 -16 -76 -6 0 -47 37 -92 83 -120 121 -227 167 -396 167 -113 1
-163 22 -190 82 -26 57 -26 144 1 244 31 117 29 197 -8 275 -40 86 -109 175
-196 254 -99 91 -132 105 -243 105 -113 0 -202 -15 -234 -38 -33 -25 -77 -105
-91 -169 -10 -45 -9 -66 6 -138 20 -98 67 -205 89 -205 17 0 31 58 22 93 -8
35 12 144 36 191 33 66 84 122 132 146 65 31 112 16 185 -59 56 -57 141 -201
141 -237 0 -33 -57 -120 -107 -163 -26 -23 -93 -64 -148 -93 -134 -68 -214
-121 -310 -203 -106 -91 -164 -116 -274 -122 -109 -6 -125 4 -182 125 -44 94
-64 122 -87 122 -12 0 -13 -10 -8 -50 4 -31 3 -50 -3 -50 -6 0 -34 20 -63 45
-142 120 -227 170 -338 199 -86 22 -156 62 -194 109 -29 36 -31 45 -31 115 0
69 5 86 43 168 64 137 57 158 -25 72 -243 -258 -129 -568 226 -608 105 -12
118 -17 155 -61 56 -66 71 -142 35 -175 -17 -15 -42 -19 -147 -24 -115 -5
-131 -8 -173 -32 -157 -93 -471 -542 -430 -615 12 -22 43 14 98 117 61 111
113 193 119 187 3 -3 -18 -55 -46 -116 -54 -118 -77 -198 -66 -226 10 -26 32
-3 66 69 47 103 118 198 308 415 l22 26 -12 -30 c-7 -16 -38 -80 -70 -140 -70
-136 -115 -242 -133 -318 -7 -31 -12 -57 -10 -57 1 0 26 39 54 88 94 158 361
522 384 522 11 0 -31 -76 -117 -210 -85 -134 -178 -321 -180 -363 -1 -28 2
-32 24 -32 18 0 26 7 31 25 35 129 105 270 160 325 l20 20 15 -20 c19 -25 13
-91 -17 -185 -37 -119 -35 -240 5 -240 21 0 32 26 40 93 3 32 15 76 26 97 23
46 46 65 34 29 -30 -90 12 -100 60 -14 34 62 114 132 140 122 9 -4 15 -35 20
-99 8 -101 28 -205 49 -244 11 -21 15 -23 25 -12 14 18 54 156 82 288 12 58
25 108 29 113 4 4 17 -50 29 -120 25 -149 52 -245 71 -251 11 -4 12 8 7 54 -7
62 -2 76 26 87 19 7 38 65 38 116 0 19 2 32 5 29 3 -2 19 -54 36 -114 31 -110
74 -204 96 -212 25 -8 25 30 -1 121 -28 98 -32 137 -16 137 6 0 47 -35 93 -78
195 -185 227 -204 227 -138 0 42 -31 144 -77 256 -89 215 -88 256 2 73 32 -65
78 -159 102 -210 25 -51 54 -100 64 -109 18 -16 19 -16 19 17 -1 19 -7 61 -15
94 -8 33 -15 64 -15 68 0 13 167 -141 192 -176 17 -24 18 -31 7 -38 -16 -9
-164 -46 -249 -60 -96 -17 -481 -10 -869 16 -850 57 -964 74 -1060 161 -28 25
-51 49 -51 53 0 14 354 418 429 490 l36 33 -24 19 c-31 26 -68 24 -148 -7 -45
-17 -97 -28 -153 -31 -104 -7 -169 -34 -290 -121 -55 -40 -86 -57 -88 -48 -7
30 30 165 62 231 56 113 144 222 331 407 160 159 193 198 165 198 -17 0 -142
-114 -254 -231 -125 -132 -225 -255 -348 -430 -107 -152 -291 -384 -366 -461
-58 -60 -84 -72 -39 -18 30 35 51 101 42 130 -5 17 -10 18 -28 8 -72 -38 -250
-227 -382 -405 -40 -54 -84 -109 -99 -122 -26 -24 -26 -24 -26 -3 0 19 19 46
142 207 59 78 79 141 89 293 6 99 14 146 30 183 18 42 21 62 17 133 -3 49 -13
98 -23 120 -18 37 -20 38 -58 32 l-39 -7 20 33 c11 18 23 48 27 66 10 46 -4
128 -25 155 l-18 22 -32 -30 c-18 -16 -68 -77 -113 -135 -72 -93 -371 -408
-351 -370 11 22 113 146 251 307 224 261 266 328 261 426 -3 56 -5 62 -26 65
-41 6 -142 188 -142 256 0 68 -73 212 -102 201 -7 -3 -24 -24 -37 -47 -21 -38
-25 -40 -32 -23 -4 11 -8 39 -8 63 -1 23 -5 42 -10 42 -15 0 -88 -121 -139
-230 -94 -203 -86 -188 -90 -162 -2 13 9 100 23 194 24 154 28 248 11 265 -11
11 -38 -21 -68 -81 l-31 -61 -11 40 c-14 49 -37 55 -64 18 -64 -91 -262 -488
-377 -758 -52 -121 -125 -330 -125 -358 0 -10 29 -49 64 -86 35 -38 73 -86 85
-108 21 -42 37 -53 76 -53 29 0 41 15 50 64 8 48 55 144 81 168 11 9 30 18 43
20 16 2 45 27 80 68 30 36 58 67 63 68 19 8 5 -22 -49 -100 -186 -272 -228
-344 -258 -445 -24 -78 -20 -115 16 -149 44 -42 59 -76 59 -137 0 -58 12 -77
48 -77 39 0 61 -18 68 -58 8 -43 30 -72 54 -72 27 0 40 23 51 92 6 39 21 80
40 109 25 39 406 408 449 434 8 5 -43 -54 -114 -130 -242 -262 -363 -451 -373
-579 -6 -70 -6 -69 71 -130 l30 -23 -10 -82 c-5 -45 -7 -87 -3 -92 3 -6 17
-10 30 -9 43 4 48 0 54 -37 11 -64 16 -74 40 -83 15 -6 27 -22 34 -45 5 -19
25 -57 44 -83 50 -67 247 -257 275 -265 19 -4 32 3 66 40 26 28 46 42 50 35 3
-6 -21 -63 -54 -126 -71 -135 -76 -161 -29 -136 16 9 21 6 31 -15 8 -18 18
-25 30 -22 27 7 36 -12 43 -93 9 -102 20 -134 62 -170 31 -27 41 -31 85 -28
48 3 51 5 54 32 2 16 13 40 26 53 62 68 488 323 488 293 0 -6 -57 -48 -127
-94 -132 -87 -223 -169 -300 -268 -152 -198 -133 -311 43 -267 60 15 66 35 25
70 l-33 27 61 -5 c53 -5 66 -3 91 16 16 11 32 21 34 21 3 0 3 -21 -1 -47 l-6
-46 38 6 c21 3 61 21 91 38 166 101 589 452 649 539 29 42 27 80 -5 80 -22 0
-96 -49 -195 -130 -41 -33 -78 -60 -81 -60 -3 0 27 36 68 79 73 77 110 138
143 232 10 31 50 87 117 165 56 66 99 111 95 101 -23 -62 95 -171 201 -184 41
-4 57 -2 85 16 19 11 37 21 40 21 2 0 8 -25 12 -56 4 -34 12 -57 21 -61 21 -8
57 30 94 99 18 32 34 58 36 55 2 -2 -4 -37 -15 -78 -27 -106 -35 -175 -21
-184 6 -4 33 -1 60 6 81 21 83 7 17 -111 -86 -153 -88 -197 -5 -100 24 27 46
50 49 50 3 0 9 -27 12 -61 4 -42 12 -68 26 -83 15 -16 21 -36 21 -72 l1 -49
40 45 c45 49 105 168 138 275 28 87 48 125 65 125 35 0 29 -49 -31 -240 -41
-132 -47 -220 -18 -284 12 -28 15 -52 10 -83 -11 -77 -122 -328 -161 -368 -17
-16 -18 -16 -25 3 -12 31 14 137 65 265 48 125 65 187 48 187 -17 0 -68 -65
-113 -142 -108 -188 -216 -368 -249 -418 -81 -119 -110 -205 -110 -319 0 -69
-18 -95 -49 -67 -25 22 -41 82 -41 151 0 54 2 59 43 98 69 68 208 321 285 518
49 127 59 169 40 169 -21 0 -81 -103 -192 -330 -57 -118 -112 -224 -121 -235
l-16 -20 5 20 c22 89 34 133 86 306 72 236 102 361 94 383 -12 31 -62 19 -105
-24 -42 -42 -86 -57 -143 -46 -19 4 -39 13 -46 21 -20 24 -61 17 -147 -24
-112 -54 -202 -112 -318 -206 -118 -96 -185 -145 -197 -145 -15 0 -8 26 15 56
33 45 130 128 281 243 142 107 188 152 210 204 26 63 47 237 29 237 -13 0 -90
-64 -228 -189 -178 -160 -239 -208 -299 -235 -99 -44 -304 -245 -353 -345 -30
-61 -25 -80 25 -93 34 -9 63 -53 76 -113 4 -17 16 -46 27 -64 16 -27 24 -32
52 -29 l32 3 -3 62 c-2 43 2 73 13 97 19 39 35 47 35 17 0 -31 19 -35 51 -12
51 38 55 32 62 -110 3 -47 10 -96 16 -107 17 -32 41 -28 41 7 0 19 17 51 47
92 55 76 223 250 234 244 9 -6 2 -31 -40 -143 -43 -115 -57 -205 -39 -256 13
-40 20 -46 75 -66 19 -7 42 -28 55 -49 27 -44 36 -51 70 -51 17 0 33 9 42 22
21 29 21 62 1 54 -8 -3 -22 -9 -30 -12 -21 -9 -19 21 4 73 15 32 26 42 47 45
25 3 28 8 41 68 23 118 180 489 220 522 15 12 16 10 9 -17 -4 -16 -26 -77 -48
-135 -99 -259 -123 -363 -116 -515 3 -71 9 -101 28 -140 62 -122 150 -120 307
10 37 30 75 55 85 55 25 0 31 -37 18 -107 -21 -118 30 -150 115 -72 27 25 51
39 59 36 9 -4 27 -30 42 -59 34 -69 71 -118 89 -118 21 0 53 38 85 100 16 30
35 64 44 75 16 19 17 19 63 -33 54 -59 78 -65 128 -32 42 28 71 25 115 -10 21
-17 48 -30 60 -30 19 0 21 4 15 28 -5 23 -2 30 18 39 14 7 35 34 50 67 15 31
30 56 35 56 4 0 17 -7 28 -15 31 -23 67 -18 99 15 16 16 34 30 41 30 7 0 31
-16 54 -35 48 -41 58 -42 93 -15 13 11 49 25 78 31 62 13 79 24 79 50 0 30 36
59 73 59 70 1 162 66 155 111 -2 17 2 24 17 27 68 10 68 10 61 52 -7 46 -2 48
55 19 22 -11 61 -23 87 -26 61 -7 83 11 132 103 36 68 58 88 111 98 17 4 57
41 116 108 49 57 165 184 257 283 288 309 354 400 555 773 73 134 162 292 199
352 37 61 95 155 129 211 134 217 192 450 273 1099 58 462 86 616 136 738 28
67 62 102 100 102 49 0 88 52 165 222 40 90 136 298 213 463 l140 300 -3 290
c-2 180 1 328 9 390 23 200 76 361 176 536 72 127 88 201 80 364 -5 114 -34
314 -57 400 -19 68 -55 128 -106 176 -53 49 -123 93 -165 103 -46 11 -51 44
-56 364 -3 216 1 342 13 484 9 105 13 214 10 242 -4 29 -22 79 -43 116 -149
271 -154 284 -187 465 -28 161 -54 265 -95 379 -38 109 -46 127 -171 387 -59
125 -118 257 -130 295 -30 98 -126 338 -162 406 -27 54 -88 118 -150 161 -42
28 -77 81 -107 162 -38 103 -66 141 -120 166 -25 12 -68 32 -97 46 -67 31
-149 105 -163 147 -12 38 -46 72 -153 151 -44 32 -83 68 -88 79 -6 12 -36 33
-67 48 -33 15 -104 68 -167 124 -60 53 -133 112 -162 130 -28 19 -67 52 -85
75 -83 104 -121 139 -162 150 -22 6 -81 31 -131 55 -84 42 -99 45 -226 59
-150 15 -173 23 -269 91 -75 53 -371 200 -477 238 -95 33 -202 53 -364 66 -74
6 -157 17 -186 25 -66 19 -83 18 -176 -10z m-256 -961 c54 -27 59 -84 8 -84
-37 0 -74 52 -58 82 12 22 12 22 50 2z m633 -175 c38 -45 87 -153 117 -259 40
-138 15 -131 -35 11 -40 111 -75 188 -111 247 -33 54 -17 54 29 1z m-835 -35
c52 -57 262 -366 300 -441 39 -78 25 -82 -64 -18 -107 76 -204 207 -269 363
-30 70 -45 152 -28 152 5 0 33 -25 61 -56z m1096 -78 c32 -62 49 -111 53 -145
4 -51 -8 -70 -23 -33 -34 87 -92 272 -86 272 5 0 30 -42 56 -94z m227 56 c22
-18 14 -32 -18 -32 -26 0 -40 20 -30 46 6 16 17 13 48 -14z m239 -71 c15 -5
34 -20 43 -33 18 -26 21 -84 5 -94 -10 -6 -159 132 -159 147 0 8 74 -5 111
-20z m-2068 -16 c1 -5 -15 -11 -35 -13 -36 -3 -52 10 -25 22 19 8 57 2 60 -9z
m2711 -62 c29 -27 126 -105 217 -174 202 -155 313 -258 344 -318 12 -25 37
-57 55 -70 46 -34 100 -166 100 -247 0 -58 41 -167 140 -374 122 -255 155
-333 235 -568 35 -103 79 -232 99 -287 53 -153 106 -559 106 -823 0 -194 -70
-497 -137 -595 -23 -33 -25 -44 -20 -95 4 -31 31 -145 61 -252 74 -259 96
-367 96 -472 0 -100 -11 -132 -51 -149 -38 -15 -88 3 -191 71 -98 64 -156 77
-400 90 -383 20 -687 -22 -928 -129 -47 -20 -164 -85 -260 -143 -96 -58 -246
-143 -333 -189 -87 -46 -184 -104 -215 -129 l-57 -46 -6 -74 c-9 -106 -27
-167 -55 -189 -20 -16 -49 -20 -162 -26 -185 -9 -253 -25 -392 -89 -159 -74
-161 -74 -193 -36 -41 49 -97 172 -97 214 0 47 86 219 141 282 42 48 55 101
46 180 -10 88 -44 85 -86 -9 -37 -83 -68 -107 -135 -107 -70 0 -101 10 -341
106 -116 46 -247 93 -290 104 -64 16 -86 27 -111 54 -37 40 -88 58 -246 86
-128 22 -224 54 -284 94 -47 31 -117 56 -154 56 -15 0 -54 15 -86 32 -57 32
-63 33 -204 36 -85 2 -176 -1 -220 -8 -72 -12 -176 -44 -193 -60 -5 -4 29 -30
75 -57 74 -45 108 -60 226 -104 18 -6 49 -25 69 -40 20 -16 54 -34 77 -40 98
-26 126 -40 133 -67 10 -41 -17 -74 -97 -117 -85 -46 -232 -180 -311 -284 -67
-88 -120 -201 -163 -343 -43 -144 -58 -178 -83 -201 -63 -55 -196 91 -282 311
-21 53 -156 503 -185 618 -23 88 -20 185 9 320 14 65 37 190 51 279 45 295 84
398 178 479 96 82 107 163 51 381 -37 148 -48 301 -43 625 4 254 7 292 26 350
24 76 39 231 48 493 l6 188 105 117 c121 136 202 252 234 337 23 64 63 131
124 211 36 46 60 94 101 192 12 30 27 47 48 56 17 8 69 44 115 80 84 66 132
89 139 68 19 -57 180 -237 275 -308 81 -60 151 -78 448 -114 197 -24 320 -57
411 -111 36 -21 69 -39 73 -39 4 0 -19 28 -49 63 -31 34 -69 87 -84 117 -26
53 -27 61 -26 205 1 150 19 350 35 393 25 65 44 -11 59 -234 15 -241 31 -334
55 -334 28 0 38 66 43 298 l4 232 47 -35 c110 -85 161 -110 161 -80 0 9 -9 30
-21 47 -12 16 -19 31 -17 34 5 4 89 -46 317 -187 127 -78 271 -212 380 -353
107 -139 221 -258 293 -306 58 -38 163 -78 175 -66 10 10 -24 52 -134 168
-114 121 -213 237 -213 250 0 33 118 -32 205 -113 65 -62 84 -69 106 -43 20
24 64 44 130 57 l61 12 -70 33 c-81 37 -96 60 -112 168 -16 109 -24 405 -11
436 36 92 97 -88 109 -319 4 -78 11 -145 14 -149 13 -13 78 49 103 99 29 59
32 116 9 197 -8 30 -20 72 -26 92 -6 21 -7 53 -4 72 8 42 51 96 75 96 27 0
189 -106 249 -162 43 -41 55 -48 67 -38 21 17 19 79 -6 221 -11 65 -17 124
-13 130 11 19 80 3 127 -30 54 -37 86 -76 159 -201 59 -99 128 -177 147 -166
19 12 12 65 -20 165 -35 110 -51 194 -43 228 4 13 8 23 11 23 3 0 29 -21 57
-47z m-3173 -328 c189 -239 289 -377 289 -396 0 -5 -12 -3 -27 5 -81 43 -273
250 -310 336 -36 83 -36 83 -78 94 -27 8 -45 21 -57 43 -21 35 -37 163 -21
163 6 0 98 -110 204 -245z m521 155 c19 -37 25 -130 8 -130 -5 0 -21 12 -35
27 -61 67 -71 147 -17 141 19 -2 32 -13 44 -38z m-415 -12 c25 -28 92 -145
123 -213 45 -102 51 -117 41 -110 -17 10 -211 304 -211 319 0 31 20 33 47 4z
m1746 -150 c11 -22 17 -53 15 -75 l-3 -38 -28 37 c-16 21 -31 55 -34 79 -5 36
-4 41 13 38 10 -2 27 -21 37 -41z m151 -147 c32 -179 43 -281 28 -281 -26 0
-58 155 -68 330 -9 154 7 135 40 -49z m-1988 -193 c3 -5 3 -12 0 -16 -8 -7
-94 75 -139 133 -24 30 -11 22 51 -34 45 -40 85 -78 88 -83z m1770 126 c79
-53 159 -144 126 -144 -14 0 -172 131 -182 151 -15 28 8 25 56 -7z m-1402 -81
c45 -39 126 -133 126 -145 0 -32 -70 29 -137 117 -57 77 -54 86 11 28z m-2793
-3009 c158 -47 367 -200 384 -281 4 -15 8 -39 11 -52 3 -13 27 -76 54 -140 26
-64 54 -141 60 -172 13 -56 10 -182 -3 -195 -15 -15 -80 63 -118 142 -21 44
-39 87 -39 96 0 38 -82 178 -128 219 -120 106 -246 115 -394 28 -93 -55 -102
-53 -94 18 8 70 52 247 71 282 35 68 94 85 196 55z m153 -466 c18 -18 41 -55
50 -83 54 -149 131 -283 227 -392 81 -92 103 -131 103 -188 1 -59 -20 -115
-43 -115 -9 0 -40 16 -70 36 -107 72 -171 82 -259 38 -118 -59 -173 -207 -139
-370 45 -213 144 -359 357 -527 74 -58 100 -98 93 -141 -4 -26 0 -39 18 -57
33 -33 28 -73 -25 -229 -72 -208 -90 -326 -65 -423 6 -23 17 -51 25 -62 22
-30 30 -8 37 100 7 101 34 235 47 235 14 0 31 -104 31 -193 1 -127 -38 -243
-88 -266 -41 -19 -127 29 -170 93 -42 61 -87 202 -108 336 -104 661 -190 1091
-345 1725 -39 159 -69 298 -68 309 3 16 12 12 65 -27 118 -88 205 -116 149
-50 -57 68 -54 153 7 219 29 31 90 62 126 64 7 0 28 -15 45 -32z m2383 -475
c-4 -3 -51 -12 -104 -20 -125 -17 -237 -46 -333 -86 -83 -34 -243 -138 -335
-217 -130 -111 -155 -114 -53 -4 133 142 388 304 508 323 65 10 326 14 317 4z
m292 -60 c179 -58 415 -193 489 -279 92 -107 187 -338 180 -441 -3 -46 -5 -49
-42 -61 -34 -11 -46 -10 -88 5 -55 20 -60 17 -78 -47 -31 -108 14 -210 92
-210 16 0 54 9 85 20 32 11 61 16 66 11 11 -11 -14 -105 -57 -219 -129 -337
-311 -518 -624 -621 -153 -50 -490 -71 -603 -38 -74 22 -200 80 -341 158 -167
92 -222 132 -268 196 -57 79 -163 297 -186 379 l-18 67 23 16 c50 34 113 96
128 124 19 38 8 49 -59 55 -29 2 -59 9 -67 15 -21 17 -8 79 48 231 54 147 77
196 90 196 5 0 24 -34 42 -75 19 -41 37 -75 41 -75 4 0 34 24 67 53 69 62 110
77 213 77 84 0 89 3 113 71 19 52 58 96 103 115 43 19 68 5 75 -41 20 -124
181 -235 339 -235 119 1 187 58 272 228 22 45 43 82 47 82 3 0 52 -61 108
-135 100 -132 160 -189 187 -178 22 8 37 72 30 132 -18 156 -161 294 -396 381
-135 51 -160 62 -154 71 6 11 52 2 143 -28z m2851 17 c0 -5 -23 -10 -51 -10
-31 0 -48 4 -44 10 3 6 26 10 51 10 24 0 44 -4 44 -10z m214 -26 c25 -10 8
-24 -29 -24 -37 0 -56 16 -28 23 28 7 40 7 57 1z m-413 -290 c15 -18 2 -47
-23 -52 -23 -4 -62 32 -55 51 8 22 60 22 78 1z m-4988 -167 c4 -81 16 -181 31
-256 29 -138 31 -169 14 -206 -19 -41 -48 -31 -139 48 -89 78 -152 154 -190
227 -42 83 -36 275 9 296 16 8 128 19 223 22 l46 2 6 -133z m165 -644 c-10
-64 -42 -143 -57 -143 -19 0 -22 46 -6 93 20 58 54 119 65 112 4 -2 3 -30 -2
-62z m358 -1186 c-46 -122 -117 -242 -116 -196 1 39 112 259 130 259 6 0 -1
-28 -14 -63z m6014 -32 c10 -26 4 -55 -11 -55 -5 0 -9 18 -9 40 0 46 6 51 20
15z m-122 -107 c51 -56 108 -216 84 -240 -18 -18 -45 13 -88 99 -59 120 -57
206 4 141z m-5728 -413 c0 -22 -29 -75 -40 -75 -16 0 -11 52 7 72 20 22 33 23
33 3z m5577 -45 c40 -65 68 -138 59 -148 -15 -14 -101 123 -113 178 -9 49 15
35 54 -30z m158 0 c8 -16 15 -43 15 -60 0 -54 -30 -33 -49 34 -16 61 7 79 34
26z m-6129 -144 c-31 -61 -66 -122 -77 -136 l-21 -25 6 33 c7 40 77 183 114
231 47 63 36 12 -22 -103z m5934 -68 c78 -160 113 -269 92 -290 -16 -16 -22
-8 -63 97 -34 87 -119 323 -119 330 0 3 4 5 10 5 5 0 41 -64 80 -142z m-210
-50 c24 -58 34 -108 21 -108 -16 0 -41 54 -48 105 -7 57 3 58 27 3z m-1247
-88 c44 -42 59 -70 37 -70 -18 0 -77 59 -120 122 l-43 63 39 -35 c21 -19 60
-55 87 -80z m261 68 c60 -39 137 -131 177 -210 43 -85 16 -68 -56 34 -76 110
-99 133 -151 158 -23 12 -48 28 -54 36 -23 27 34 16 84 -18z m803 -60 c68 -73
79 -108 35 -108 -43 0 -92 61 -92 114 0 35 20 33 57 -6z m-1402 -14 c13 -9 33
-13 43 -9 15 4 28 -4 50 -31 61 -74 176 -340 197 -456 6 -31 4 -38 -8 -38 -30
0 -88 104 -122 220 -15 50 -64 137 -129 227 -79 110 -83 121 -31 87z m-2411
-252 c-116 -114 -253 -252 -304 -307 -51 -55 -78 -80 -59 -55 149 197 545 597
568 575 3 -4 -89 -100 -205 -213z m3586 157 c44 -28 80 -56 80 -61 0 -7 -19
-9 -51 -6 -59 6 -119 44 -152 97 l-21 34 32 -6 c18 -4 68 -30 112 -58z m-1291
-125 c24 -43 65 -116 90 -162 25 -46 72 -115 103 -155 32 -40 58 -76 58 -80 1
-39 -147 136 -258 305 -83 127 -126 213 -117 236 10 24 68 -44 124 -144z
m-3466 39 c-101 -136 -223 -292 -232 -298 -12 -7 -51 43 -50 64 1 14 321 311
335 311 2 0 -22 -35 -53 -77z m1507 58 c0 -19 -83 -113 -155 -174 -73 -62
-129 -96 -190 -114 -18 -5 -44 -27 -65 -56 l-35 -47 -3 30 c-4 37 35 95 114
170 129 121 247 200 302 200 17 0 32 -4 32 -9z m1571 -93 c46 -58 173 -310
167 -329 -8 -24 -188 208 -188 242 0 9 -9 42 -20 74 -23 68 -23 65 -10 65 5 0
28 -23 51 -52z m914 -40 c71 -153 77 -208 22 -208 -30 0 -41 9 -66 50 -25 42
-27 92 -5 111 16 13 15 60 -2 117 -15 51 10 16 51 -70z m1034 -161 c50 -100
93 -193 96 -207 l6 -25 -21 25 c-22 26 -183 347 -196 390 -6 22 -5 23 9 12 9
-8 57 -95 106 -195z m-798 -1 c112 -168 101 -181 -23 -27 -51 63 -118 176
-118 198 0 20 71 -66 141 -171z m-4666 43 c-32 -63 -72 -119 -86 -119 -27 0
19 113 67 165 40 44 51 18 19 -46z m698 49 c-5 -7 -37 -47 -70 -88 -86 -108
-256 -337 -347 -467 -43 -62 -82 -113 -87 -113 -11 0 20 72 71 161 73 129 151
229 294 376 123 127 169 170 139 131z m3512 -201 c26 -49 10 -60 -27 -17 -33
39 -88 130 -88 145 1 16 93 -87 115 -128z m630 65 c60 -47 179 -181 211 -237
17 -29 17 -30 -2 -15 -60 46 -210 190 -244 235 -63 82 -52 88 35 17z m-3115
-29 c0 -68 -20 -112 -72 -159 -72 -65 -75 -4 -6 124 65 121 78 127 78 35z
m4050 -49 c0 -19 -4 -34 -10 -34 -11 0 -40 91 -32 104 10 17 42 -36 42 -70z
m-613 -106 c26 -38 43 -71 39 -75 -14 -14 -146 155 -146 186 0 23 55 -34 107
-111z m-561 91 c24 -26 90 -65 127 -73 15 -4 31 -14 34 -24 8 -23 94 -137 187
-247 41 -49 76 -94 76 -98 0 -4 -35 23 -77 60 -155 136 -337 268 -355 257 -12
-7 7 -38 66 -107 73 -86 76 -96 23 -57 -95 68 -60 -2 70 -141 126 -134 147
-169 103 -169 -12 0 -32 -11 -45 -24 l-24 -24 -24 37 c-78 119 -157 297 -157
355 0 21 -6 36 -16 40 -33 13 -118 -45 -125 -84 -1 -8 3 -28 10 -45 34 -79
119 -460 107 -472 -3 -3 -20 25 -37 63 -92 204 -159 308 -219 339 -63 33 -64
-14 -4 -147 34 -76 38 -91 39 -183 2 -63 8 -116 19 -144 9 -24 14 -46 12 -48
-2 -2 -19 16 -37 42 -34 47 -75 78 -119 89 -14 3 -55 33 -92 65 -82 72 -103
81 -131 52 -31 -31 -28 -136 8 -220 55 -131 14 -87 -88 94 -50 90 -70 101 -75
40 -5 -52 10 -100 64 -209 24 -49 41 -92 38 -97 -8 -13 -48 -11 -62 3 -7 7
-12 19 -12 28 0 23 -66 168 -96 211 -55 79 -132 102 -162 49 -33 -60 -104 -44
-139 32 l-20 42 -15 -29 c-9 -17 -19 -45 -23 -62 -10 -51 -21 -47 -38 15 -33
121 -107 156 -107 51 0 -36 -12 -37 -34 -4 -23 35 -41 32 -104 -20 -30 -25
-60 -45 -67 -45 -17 0 -42 31 -50 63 -4 15 -21 39 -37 53 -40 33 -78 29 -96
-9 -10 -21 -18 -26 -33 -22 -26 9 -45 -8 -68 -61 -16 -35 -26 -44 -58 -53 -44
-12 -68 -13 -111 -5 -36 7 -45 24 -32 60 22 57 -10 51 -92 -18 -27 -21 -52
-36 -58 -33 -5 3 -10 21 -10 39 0 19 -7 39 -15 46 -13 11 -23 7 -62 -20 l-46
-33 8 44 c14 79 13 84 -15 80 -52 -8 -65 -6 -75 16 -7 17 -15 21 -32 16 -16
-3 -37 3 -63 21 -65 43 -83 37 -169 -56 -156 -169 -280 -292 -287 -285 -11 11
37 75 142 188 111 119 146 171 126 191 -24 24 -130 -69 -502 -443 -467 -470
-480 -481 -480 -399 0 86 77 179 218 263 77 46 122 93 122 129 0 32 61 96 146
153 107 72 232 195 262 256 22 45 29 113 14 123 -5 3 -28 -13 -53 -34 -52 -46
-61 -48 -86 -17 -28 36 -40 39 -75 21 -18 -9 -112 -94 -208 -189 -165 -162
-215 -204 -227 -191 -11 11 49 79 252 286 262 267 317 338 355 453 14 45 49
72 82 62 13 -4 62 -25 110 -46 99 -45 177 -64 333 -78 259 -25 1032 -61 1300
-61 315 0 428 19 690 117 133 50 161 57 243 61 88 4 94 6 103 29 5 13 9 44 9
69 0 50 15 57 46 23z m-3982 -61 c-28 -91 -324 -489 -324 -437 0 15 126 207
190 291 70 90 134 168 137 168 3 0 1 -10 -3 -22z m336 -70 c-113 -167 -263
-359 -273 -349 -13 13 21 70 116 198 78 105 187 227 195 219 2 -3 -15 -33 -38
-68z m4484 -16 c60 -99 163 -356 154 -384 -7 -21 -184 343 -202 415 -11 44 10
31 48 -31z m-4324 -26 c-43 -113 -166 -288 -303 -431 -90 -93 -122 -110 -85
-45 53 93 370 500 389 500 5 0 4 -11 -1 -24z m-490 -201 c0 -22 -35 -89 -56
-106 -16 -13 -17 -11 -10 31 4 25 14 55 22 68 17 25 44 30 44 7z m600 6 c0
-12 -55 -79 -84 -102 -14 -11 -26 -17 -26 -12 0 12 39 75 63 101 20 22 47 30
47 13z m-8 -198 c-33 -46 -69 -76 -77 -63 -4 6 12 28 37 50 50 46 68 52 40 13z
m3994 -79 c45 -37 62 -75 25 -55 -20 11 -87 91 -76 91 4 0 27 -16 51 -36z
m-4156 -80 c0 -4 -25 -44 -56 -90 -50 -77 -169 -194 -195 -194 -12 0 -4 30 21
80 37 72 230 243 230 204z m1024 -26 c-33 -58 -124 -144 -124 -118 0 12 112
130 124 130 4 0 4 -6 0 -12z m2135 -247 c79 -133 256 -489 247 -498 -8 -8
-256 242 -256 258 0 4 16 -1 35 -12 30 -18 36 -19 41 -5 9 24 -13 78 -93 232
-40 77 -73 147 -73 155 1 21 41 -32 99 -130z m-3609 87 c0 -12 -12 -41 -26
-66 -22 -37 -28 -42 -36 -29 -12 22 8 94 30 106 26 15 32 13 32 -11z m2459
-85 c23 -80 10 -170 -25 -183 -26 -10 -30 -24 -39 -126 -3 -39 -12 -93 -19
-121 -16 -58 -56 -143 -68 -143 -15 0 -21 53 -14 142 4 69 12 103 35 151 17
34 37 102 47 152 28 156 61 207 83 128z m580 11 c23 -29 28 -79 9 -90 -19 -12
-48 35 -48 77 0 46 11 49 39 13z m-1739 -30 c0 -37 -15 -46 -25 -14 -8 25 3
62 16 55 5 -4 9 -22 9 -41z m1567 -54 c35 -33 90 -73 121 -89 158 -80 303 -82
230 -3 -24 25 -48 64 -48 76 0 15 21 2 74 -44 53 -46 71 -55 104 -51 39 5 121
-81 147 -157 26 -72 29 -77 72 -82 93 -13 184 -125 204 -253 6 -34 28 -100 51
-147 46 -96 54 -145 24 -145 -14 0 -58 57 -154 200 -128 191 -271 383 -312
420 -19 18 -20 17 -20 -11 0 -63 114 -276 235 -439 30 -41 55 -77 55 -80 0 -3
-80 75 -178 175 -182 185 -214 207 -224 156 -7 -37 9 -140 39 -246 50 -181
206 -574 254 -641 41 -58 8 -42 -63 32 -81 84 -159 221 -218 384 -40 110 -81
194 -107 218 -22 19 -48 15 -57 -9 -9 -23 -25 -7 -51 52 -13 30 -29 54 -35 54
-6 0 -18 -17 -28 -37 -28 -64 -24 -354 7 -511 20 -98 22 -125 12 -135 -32 -31
-57 60 -95 343 -26 198 -53 330 -66 330 -16 0 -18 -69 -7 -283 10 -198 10
-219 -6 -234 -15 -16 -18 -15 -37 2 -34 31 -43 89 -42 275 2 193 -11 272 -53
345 -53 90 -67 265 -26 317 34 41 81 -3 81 -75 0 -55 29 -224 43 -259 l15 -33
17 40 c17 38 17 48 1 185 -15 137 -36 364 -36 403 0 9 3 17 6 17 4 0 35 -27
71 -60z m-1667 -90 c0 -28 -189 -184 -205 -168 -8 8 173 178 190 178 8 0 15
-4 15 -10z m3125 -15 c28 -27 31 -52 12 -79 -16 -21 -28 -10 -46 43 -22 65 -9
79 34 36z m-446 -49 c19 -20 32 -39 28 -43 -8 -8 -50 29 -79 71 -20 26 -20 28
-2 18 10 -6 34 -26 53 -46z m395 -112 c5 -14 -18 -74 -29 -74 -2 0 -11 13 -20
29 -18 36 -10 61 20 61 13 0 26 -7 29 -16z m-3289 -194 c-16 -26 -225 -210
-295 -260 -28 -20 -31 -21 -22 -4 20 38 215 212 282 253 40 24 44 25 35 11z
m1617 -50 c43 -84 53 -155 38 -256 -14 -95 -30 -103 -30 -14 0 100 -33 148
-71 102 -9 -12 -20 -22 -23 -22 -11 0 -6 186 5 219 17 49 47 38 81 -29z m1493
4 c32 -21 32 -44 1 -44 -28 0 -51 24 -42 45 7 19 11 19 41 -1z m-489 -396
c164 -169 224 -252 224 -313 0 -104 -228 145 -366 400 l-48 90 39 -32 c22 -17
90 -82 151 -145z m-1746 148 c0 -35 -47 -131 -84 -172 -26 -29 -83 -129 -156
-272 -63 -125 -119 -226 -125 -225 -20 4 -16 33 15 106 63 151 314 577 341
577 5 0 9 -6 9 -14z m-371 -154 c-54 -62 -156 -165 -183 -184 l-28 -21 11 21
c16 30 212 224 219 218 3 -4 -5 -18 -19 -34z m2549 26 c25 -25 11 -88 -19 -88
-28 0 -45 43 -31 75 13 27 31 32 50 13z m-1438 -84 c0 -19 -4 -34 -10 -34 -5
0 -10 18 -10 41 0 24 4 38 10 34 6 -3 10 -22 10 -41z m966 -140 c40 -27 63
-84 33 -84 -20 0 -69 54 -69 76 0 28 3 29 36 8z m-852 -60 c5 -23 25 -55 59
-92 29 -32 67 -77 84 -102 38 -57 93 -165 93 -185 0 -26 -17 -16 -35 21 -22
47 -37 51 -79 19 -19 -14 -37 -22 -40 -17 -3 5 -10 40 -16 78 -6 38 -27 109
-47 158 -37 92 -55 174 -36 163 6 -4 14 -23 17 -43z m535 -79 c48 -116 51
-185 6 -135 -18 20 -75 206 -75 244 0 18 3 17 20 -9 11 -16 33 -61 49 -100z
m-786 109 c8 -8 -17 -56 -37 -73 -13 -11 -16 -11 -16 3 0 21 28 76 39 76 4 0
10 -3 14 -6z m1213 -140 c17 -41 17 -44 0 -44 -16 0 -50 66 -41 80 10 15 25 1
41 -36z m-492 -195 c21 -24 24 -34 15 -45 -21 -26 -59 10 -59 57 0 27 14 24
44 -12z m-789 -159 c12 -37 -38 -70 -52 -35 -5 15 22 55 38 55 4 0 11 -9 14
-20z"/>
<path d="M2372 6221 c-12 -7 -12 -12 -1 -29 17 -27 78 -60 216 -115 194 -78
218 -82 473 -82 199 0 231 3 280 20 61 22 71 44 25 57 -16 5 -118 13 -225 18
-228 10 -317 25 -523 84 -172 50 -226 60 -245 47z"/>
<path d="M4116 5818 c-35 -124 -46 -332 -25 -471 6 -40 30 -148 54 -242 55
-217 65 -297 75 -645 5 -157 13 -303 19 -324 5 -22 22 -51 36 -65 l27 -26 -5
475 c-5 504 -8 547 -57 720 -40 142 -50 215 -60 416 -7 160 -17 214 -40 214
-5 0 -16 -24 -24 -52z"/>
</g>
</svg>
